<svg width="24" height="24" viewBox="0 0 24 24" fill="none" xmlns="http://www.w3.org/2000/svg">
<path d="M12.0794 2.25001C7.28535 2.25001 3.34535 5.91301 2.96135 10.583H2.00035C1.85167 10.5829 1.70631 10.6271 1.58276 10.7098C1.4592 10.7925 1.36302 10.9101 1.30644 11.0476C1.24985 11.1851 1.23541 11.3363 1.26495 11.482C1.2945 11.6277 1.36669 11.7614 1.47235 11.866L3.15235 13.532C3.29281 13.6712 3.48258 13.7494 3.68035 13.7494C3.87813 13.7494 4.0679 13.6712 4.20835 13.532L5.88835 11.866C5.99402 11.7614 6.06621 11.6277 6.09575 11.482C6.1253 11.3363 6.11086 11.1851 6.05427 11.0476C5.99769 10.9101 5.90151 10.7925 5.77795 10.7098C5.6544 10.6271 5.50904 10.5829 5.36035 10.583H4.46735C4.84735 6.75201 8.10535 3.75001 12.0794 3.75001C13.3896 3.74748 14.6785 4.08107 15.823 4.71888C16.9675 5.35669 17.9293 6.27741 18.6164 7.39301C18.6666 7.47958 18.7337 7.55521 18.8137 7.61544C18.8936 7.67566 18.9849 7.71928 19.0819 7.7437C19.179 7.76812 19.28 7.77286 19.379 7.75764C19.4779 7.74242 19.5728 7.70755 19.658 7.65507C19.7433 7.6026 19.8172 7.53359 19.8753 7.45211C19.9335 7.37063 19.9748 7.27834 19.9967 7.18066C20.0186 7.08298 20.0208 6.9819 20.003 6.88338C19.9853 6.78486 19.948 6.69089 19.8934 6.60701C19.0722 5.27342 17.9227 4.17267 16.5549 3.40988C15.1871 2.64709 13.6455 2.24775 12.0794 2.25001ZM20.8414 10.467C20.701 10.3284 20.5116 10.2506 20.3144 10.2506C20.1171 10.2506 19.9277 10.3284 19.7874 10.467L18.1004 12.133C17.9944 12.2375 17.9219 12.3712 17.8922 12.517C17.8624 12.6628 17.8767 12.8141 17.9332 12.9518C17.9897 13.0894 18.0858 13.2072 18.2095 13.29C18.3331 13.3729 18.4785 13.4171 18.6274 13.417H19.5264C19.1444 17.247 15.8754 20.25 11.8824 20.25C10.568 20.2534 9.27474 19.9203 8.12558 19.2824C6.97643 18.6446 6.00967 17.7232 5.31735 16.606C5.26561 16.5222 5.19786 16.4493 5.11797 16.3917C5.03808 16.334 4.94762 16.2926 4.85174 16.2699C4.75586 16.2472 4.65646 16.2436 4.55919 16.2593C4.46192 16.275 4.3687 16.3098 4.28485 16.3615C4.11551 16.466 3.99462 16.6335 3.94877 16.8271C3.90291 17.0208 3.93586 17.2247 4.04035 17.394C4.86711 18.729 6.02179 19.8301 7.39446 20.5926C8.76714 21.3551 10.3121 21.7535 11.8824 21.75C16.6904 21.75 20.6474 18.09 21.0324 13.417H22.0004C22.1492 13.4171 22.2946 13.3729 22.4183 13.29C22.5419 13.2072 22.638 13.0894 22.6946 12.9518C22.7511 12.8141 22.7653 12.6628 22.7356 12.517C22.7058 12.3712 22.6333 12.2375 22.5274 12.133L20.8414 10.467Z" fill="#008DE7"/>
</svg>
