<svg width="24" height="24" viewBox="0 0 24 24" fill="none" xmlns="http://www.w3.org/2000/svg">
<g clip-path="url(#clip0_1128_1984)">
<path d="M5 0H16C16.7956 0 17.5587 0.316071 18.1213 0.87868C18.6839 1.44129 19 2.20435 19 3V17C19 17.2652 18.8946 17.5196 18.7071 17.7071C18.5196 17.8946 18.2652 18 18 18H15" stroke="black" stroke-width="2" stroke-linecap="round" stroke-linejoin="round"/>
<path d="M12 10V12M5 0L12.588 1.518C13.268 1.65392 13.8799 2.02121 14.3197 2.55739C14.7594 3.09358 14.9998 3.76555 15 4.459V18.78C14.9999 18.9279 14.967 19.0739 14.9037 19.2076C14.8404 19.3412 14.7482 19.4592 14.6338 19.5529C14.5194 19.6466 14.3856 19.7138 14.2422 19.7496C14.0987 19.7854 13.949 19.789 13.804 19.76L6.608 18.322C6.15444 18.2313 5.74633 17.9863 5.45314 17.6286C5.15995 17.2708 4.99982 16.8225 5 16.36V0Z" stroke="black" stroke-width="2" stroke-linecap="round" stroke-linejoin="round"/>
</g>
<defs>
<clipPath id="clip0_1128_1984">
<rect width="24" height="24" fill="white"/>
</clipPath>
</defs>
</svg>
