<svg width="48" height="48" viewBox="0 0 48 48" fill="none" xmlns="http://www.w3.org/2000/svg">
<circle cx="24" cy="24" r="24" fill="white"/>
<path d="M31.0007 26.1644H25.1673V31.9977C25.1673 32.3071 25.0444 32.6039 24.8256 32.8227C24.6068 33.0415 24.3101 33.1644 24.0007 33.1644C23.6912 33.1644 23.3945 33.0415 23.1757 32.8227C22.9569 32.6039 22.834 32.3071 22.834 31.9977V26.1644H17.0007C16.6912 26.1644 16.3945 26.0415 16.1757 25.8227C15.9569 25.6039 15.834 25.3071 15.834 24.9977C15.834 24.6883 15.9569 24.3916 16.1757 24.1728C16.3945 23.954 16.6912 23.8311 17.0007 23.8311H22.834V17.9977C22.834 17.6883 22.9569 17.3916 23.1757 17.1728C23.3945 16.954 23.6912 16.8311 24.0007 16.8311C24.3101 16.8311 24.6068 16.954 24.8256 17.1728C25.0444 17.3916 25.1673 17.6883 25.1673 17.9977V23.8311H31.0007C31.3101 23.8311 31.6068 23.954 31.8256 24.1728C32.0444 24.3916 32.1673 24.6883 32.1673 24.9977C32.1673 25.3071 32.0444 25.6039 31.8256 25.8227C31.6068 26.0415 31.3101 26.1644 31.0007 26.1644Z" fill="black"/>
</svg>
