<svg width="32" height="32" viewBox="0 0 32 32" fill="none" xmlns="http://www.w3.org/2000/svg">
<path opacity="0.5" d="M16.0003 29.3337C23.3643 29.3337 29.3337 23.3643 29.3337 16.0003C29.3337 8.63632 23.3643 2.66699 16.0003 2.66699C8.63633 2.66699 2.66699 8.63632 2.66699 16.0003C2.66699 18.1337 3.16833 20.1497 4.05766 21.9377C4.29499 22.4123 4.37366 22.955 4.23633 23.4683L3.44299 26.4363C3.36442 26.73 3.36449 27.0393 3.4432 27.333C3.52191 27.6266 3.67648 27.8945 3.89141 28.1095C4.10634 28.3246 4.37406 28.4793 4.66769 28.5582C4.96133 28.6371 5.27055 28.6374 5.56433 28.559L8.53233 27.7643C9.0475 27.6342 9.59251 27.6973 10.0643 27.9417C11.9083 28.8597 13.9405 29.3363 16.0003 29.3337Z" fill="#FAC22F"/>
<path d="M16.9997 10.667C16.9997 10.4018 16.8943 10.1474 16.7068 9.95989C16.5192 9.77235 16.2649 9.66699 15.9997 9.66699C15.7345 9.66699 15.4801 9.77235 15.2926 9.95989C15.105 10.1474 14.9997 10.4018 14.9997 10.667V10.6803C13.5477 11.047 12.333 12.191 12.333 13.7777C12.333 15.7203 14.153 17.0003 15.9997 17.0003C17.0983 17.0003 17.6663 17.711 17.6663 18.223C17.6663 18.735 17.0983 19.4443 15.9997 19.4443C14.901 19.4443 14.333 18.735 14.333 18.223C14.333 17.9578 14.2277 17.7034 14.0401 17.5159C13.8526 17.3283 13.5982 17.223 13.333 17.223C13.0678 17.223 12.8134 17.3283 12.6259 17.5159C12.4384 17.7034 12.333 17.9578 12.333 18.223C12.333 19.8097 13.5477 20.955 14.9997 21.3203V21.3337C14.9997 21.5989 15.105 21.8532 15.2926 22.0408C15.4801 22.2283 15.7345 22.3337 15.9997 22.3337C16.2649 22.3337 16.5192 22.2283 16.7068 22.0408C16.8943 21.8532 16.9997 21.5989 16.9997 21.3337V21.3203C18.4517 20.955 19.6663 19.8097 19.6663 18.223C19.6663 16.2803 17.8463 15.0003 15.9997 15.0003C14.901 15.0003 14.333 14.2897 14.333 13.7777C14.333 13.2657 14.901 12.5563 15.9997 12.5563C17.0983 12.5563 17.6663 13.2657 17.6663 13.7777C17.6663 14.0429 17.7717 14.2972 17.9592 14.4848C18.1468 14.6723 18.4011 14.7777 18.6663 14.7777C18.9316 14.7777 19.1859 14.6723 19.3734 14.4848C19.561 14.2972 19.6663 14.0429 19.6663 13.7777C19.6663 12.191 18.4517 11.047 16.9997 10.6803V10.667Z" fill="#FAC22F"/>
</svg>
