<svg width="32" height="32" viewBox="0 0 32 32" fill="none" xmlns="http://www.w3.org/2000/svg">
<path fill-rule="evenodd" clip-rule="evenodd" d="M27.773 14.287L27.0823 16.863C26.2757 19.8697 25.873 21.3736 24.9597 22.3483C24.239 23.1179 23.3064 23.6566 22.2797 23.8963C22.1508 23.9265 22.0197 23.9497 21.8863 23.9657C20.6663 24.1163 19.177 23.7176 16.4677 22.9923C13.461 22.1856 11.957 21.783 10.9823 20.8697C10.2125 20.1486 9.67385 19.2155 9.43433 18.1883C9.13033 16.887 9.533 15.3843 10.3397 12.3777L11.029 9.80165L11.3543 8.59498C11.961 6.37365 12.369 5.15098 13.1517 4.31498C13.8725 3.54592 14.8051 3.0077 15.8317 2.76832C17.133 2.46432 18.637 2.86698 21.645 3.67365C24.6503 4.47898 26.1543 4.88165 27.129 5.79365C27.899 6.51506 28.4377 7.44865 28.677 8.47632C28.981 9.77765 28.5783 11.2803 27.773 14.287ZM14.7343 13.0737C14.7684 12.9468 14.8271 12.8279 14.9071 12.7237C14.9871 12.6195 15.0868 12.5321 15.2006 12.4665C15.3144 12.4008 15.44 12.3583 15.5702 12.3412C15.7005 12.3241 15.8328 12.3329 15.9597 12.367L22.3997 14.0936C22.5299 14.1245 22.6526 14.1812 22.7605 14.2604C22.8683 14.3395 22.9593 14.4395 23.0278 14.5545C23.0963 14.6694 23.1411 14.7969 23.1595 14.9294C23.1778 15.062 23.1694 15.1969 23.1347 15.3261C23.1 15.4554 23.0397 15.5763 22.9574 15.6818C22.8751 15.7873 22.7724 15.8752 22.6555 15.9403C22.5386 16.0054 22.4098 16.0464 22.2768 16.0608C22.1437 16.0753 22.0091 16.0628 21.881 16.0243L15.441 14.299C15.1851 14.2302 14.9669 14.0627 14.8344 13.8332C14.7019 13.6037 14.6659 13.3297 14.7343 13.0737ZM13.6997 16.939C13.7684 16.6831 13.9359 16.4649 14.1654 16.3324C14.3949 16.1999 14.6676 16.1639 14.9237 16.2323L18.7877 17.2683C18.9185 17.2985 19.0419 17.3547 19.1505 17.4337C19.2592 17.5126 19.3508 17.6126 19.4199 17.7276C19.4891 17.8427 19.5344 17.9706 19.553 18.1035C19.5717 18.2365 19.5635 18.3718 19.5287 18.5015C19.494 18.6312 19.4334 18.7526 19.3508 18.8584C19.2681 18.9642 19.165 19.0523 19.0476 19.1173C18.9301 19.1824 18.8008 19.2232 18.6672 19.2372C18.5337 19.2513 18.3987 19.2382 18.2703 19.199L14.4063 18.1643C14.2795 18.1303 14.1605 18.0716 14.0564 17.9916C13.9522 17.9116 13.8648 17.8118 13.7992 17.698C13.7335 17.5843 13.691 17.4587 13.6739 17.3284C13.6568 17.1982 13.6656 17.0658 13.6997 16.939Z" fill="#007CEC"/>
<path opacity="0.5" d="M21.8866 23.9671C21.6077 24.8204 21.1179 25.5895 20.4626 26.2031C19.488 27.1164 17.984 27.5191 14.9773 28.3244C11.9706 29.1297 10.4666 29.5338 9.16663 29.2297C8.13944 28.9902 7.20634 28.4515 6.48529 27.6817C5.57196 26.7071 5.16796 25.2031 4.36263 22.1964L3.67329 19.6204C2.86663 16.6137 2.46396 15.1097 2.76663 13.8098C3.00651 12.7824 3.54569 11.8493 4.31596 11.1284C5.29063 10.2151 6.79463 9.81242 9.80129 9.00575C10.3684 8.85286 10.8862 8.71553 11.3546 8.59375L11.0293 9.80175L10.34 12.3777C9.53329 15.3844 9.13063 16.8871 9.43329 18.1884C9.67318 19.2158 10.2124 20.1489 10.9826 20.8698C11.9573 21.7831 13.4613 22.1857 16.468 22.9924C19.1773 23.7177 20.6666 24.1178 21.8866 23.9671Z" fill="#007CEC"/>
</svg>
