<svg width="28" height="28" viewBox="0 0 28 28" fill="none" xmlns="http://www.w3.org/2000/svg">
<path opacity="0.5" d="M4.86733 3.70034C3.5 5.06651 3.5 7.26684 3.5 11.6663V16.333C3.5 20.7325 3.5 22.9328 4.86733 24.299C6.23467 25.6652 8.43383 25.6663 12.8333 25.6663H15.1667C19.5662 25.6663 21.7665 25.6663 23.1327 24.299C24.4988 22.9317 24.5 20.7325 24.5 16.333V11.6663C24.5 7.26684 24.5 5.06651 23.1327 3.70034C21.7653 2.33417 19.5662 2.33301 15.1667 2.33301H12.8333C8.43383 2.33301 6.2335 2.33301 4.86733 3.70034Z" fill="#008DE7"/>
<path d="M7 13.9998C7 12.3501 7 11.5253 7.51333 11.0131C8.02433 10.4998 8.84917 10.4998 10.5 10.4998H17.5C19.1497 10.4998 19.9745 10.4998 20.4867 11.0131C21 11.5253 21 12.3501 21 13.9998V18.6664C21 20.3161 21 21.1409 20.4867 21.6531C19.9745 22.1664 19.1497 22.1664 17.5 22.1664H10.5C8.85033 22.1664 8.0255 22.1664 7.51333 21.6531C7 21.1421 7 20.3173 7 18.6664V13.9998ZM8.16667 6.12476C7.9346 6.12476 7.71204 6.21694 7.54795 6.38104C7.38385 6.54513 7.29167 6.76769 7.29167 6.99976C7.29167 7.23182 7.38385 7.45438 7.54795 7.61847C7.71204 7.78257 7.9346 7.87476 8.16667 7.87476H14C14.2321 7.87476 14.4546 7.78257 14.6187 7.61847C14.7828 7.45438 14.875 7.23182 14.875 6.99976C14.875 6.76769 14.7828 6.54513 14.6187 6.38104C14.4546 6.21694 14.2321 6.12476 14 6.12476H8.16667Z" fill="#008DE7"/>
</svg>
