<svg width="32" height="32" viewBox="0 0 32 32" fill="none" xmlns="http://www.w3.org/2000/svg">
<path d="M11.2297 27.4907C13.571 28.72 14.7417 29.3333 16.0003 29.3333V16L3.51766 9.43066L3.46433 9.52C2.66699 10.872 2.66699 12.556 2.66699 15.9227V16.0787C2.66699 19.444 2.66699 21.128 3.46299 22.48C4.26033 23.8333 5.69499 24.5867 8.56299 26.092L11.2297 27.4907Z" fill="#FFC11D"/>
<path opacity="0.7" d="M23.4362 5.90941L20.7696 4.50941C18.4296 3.28141 17.2589 2.66675 16.0002 2.66675C14.7402 2.66675 13.5709 3.28008 11.2296 4.50941L8.56291 5.90941C5.75758 7.38141 4.32291 8.13341 3.51758 9.42941L16.0002 16.0001L28.4829 9.43075C27.6749 8.13341 26.2429 7.38141 23.4362 5.90941Z" fill="#FFC11D"/>
<path opacity="0.5" d="M28.5373 9.52L28.4827 9.43066L16 16V29.3333C17.2587 29.3333 18.4293 28.72 20.7707 27.4907L23.4373 26.0907C26.3053 24.5853 27.74 23.8333 28.5373 22.48C29.3333 21.128 29.3333 19.444 29.3333 16.08V15.924C29.3333 12.5573 29.3333 10.872 28.5373 9.52Z" fill="#FFC11D"/>
<path d="M8.43093 5.97868L8.56426 5.90935L10.5549 4.86401L22.6883 11.5373L28.0549 8.85601C28.2372 9.06224 28.398 9.28357 28.5376 9.52001C28.7376 9.85868 28.8869 10.2187 28.9989 10.62L23.6669 13.2853V17.3333C23.6669 17.5986 23.5616 17.8529 23.374 18.0405C23.1865 18.228 22.9321 18.3333 22.6669 18.3333C22.4017 18.3333 22.1474 18.228 21.9598 18.0405C21.7723 17.8529 21.6669 17.5986 21.6669 17.3333V14.2853L17.0003 16.6187V29.2053C16.6737 29.29 16.3377 29.333 16.0003 29.3333C15.6696 29.3333 15.3429 29.2907 15.0003 29.2053V16.6187L3.00293 10.6187C3.11493 10.2187 3.26426 9.85868 3.46426 9.52001C3.60293 9.28357 3.76382 9.06224 3.94693 8.85601L16.0003 14.8827L20.5163 12.6253L8.43093 5.97868Z" fill="#FFC11D"/>
</svg>
