<svg width="32" height="32" viewBox="0 0 32 32" fill="none" xmlns="http://www.w3.org/2000/svg">
<path fill-rule="evenodd" clip-rule="evenodd" d="M18.4043 7.11076C18.4043 4.65743 20.4043 2.66676 22.8683 2.66676C23.4534 2.66519 24.033 2.7789 24.5741 3.00141C25.1152 3.22392 25.6071 3.55087 26.0218 3.96357C26.4364 4.37627 26.7657 4.86663 26.9908 5.40664C27.2159 5.94665 27.3324 6.52572 27.3337 7.11076C27.3337 9.56543 25.3337 11.5561 22.8683 11.5561C22.2771 11.5565 21.6918 11.4396 21.1461 11.2121C20.6005 10.9846 20.1054 10.651 19.6897 10.2308L13.5097 14.4388C13.6815 15.2961 13.5971 16.1851 13.267 16.9948L20.043 21.4481C20.8413 20.7976 21.8399 20.4429 22.8697 20.4441C23.4547 20.4427 24.0343 20.5566 24.5753 20.7793C25.1163 21.0019 25.6082 21.329 26.0227 21.7418C26.4373 22.1547 26.7664 22.6451 26.9914 23.1852C27.2163 23.7253 27.3326 24.3044 27.3337 24.8894C27.3337 27.3428 25.3337 29.3334 22.8683 29.3334C22.2834 29.3348 21.7039 29.221 21.163 28.9984C20.6221 28.7758 20.1303 28.4488 19.7157 28.0362C19.3012 27.6235 18.972 27.1332 18.747 26.5932C18.522 26.0533 18.4056 25.4744 18.4043 24.8894C18.4033 24.2663 18.5346 23.65 18.7897 23.0814L12.067 18.6668C11.2526 19.3742 10.2097 19.7631 9.13099 19.7614C8.54595 19.7628 7.96636 19.6489 7.42535 19.4263C6.88433 19.2036 6.3925 18.8765 5.97794 18.4637C5.56338 18.0509 5.23423 17.5604 5.0093 17.0203C4.78436 16.4802 4.66804 15.9011 4.66699 15.3161C4.66822 14.7312 4.78466 14.1522 5.00968 13.6123C5.23469 13.0724 5.56387 12.5821 5.97841 12.1694C6.39295 11.7567 6.88473 11.4297 7.42565 11.2071C7.96658 10.9845 8.54606 10.8707 9.13099 10.8721C10.5497 10.8721 11.811 11.5294 12.6283 12.5534L18.619 8.47476C18.4761 8.03423 18.4036 7.5739 18.4043 7.11076Z" fill="#008DE7"/>
</svg>
