<svg width="28" height="28" viewBox="0 0 28 28" fill="none" xmlns="http://www.w3.org/2000/svg">
<path opacity="0.5" d="M25.6663 13.9997C25.6663 20.4432 20.4432 25.6663 13.9997 25.6663C7.55617 25.6663 2.33301 20.4432 2.33301 13.9997C2.33301 7.55617 7.55617 2.33301 13.9997 2.33301C20.4432 2.33301 25.6663 7.55617 25.6663 13.9997Z" fill="#008DE7"/>
<path d="M19.6086 22.1795C17.9587 23.314 16.0027 23.9199 14.0004 23.9167C11.9981 23.9199 10.0422 23.314 8.39225 22.1795C7.68758 21.6953 7.38658 20.7737 7.79725 20.0235C8.64542 18.4683 10.3954 17.5 14.0004 17.5C17.6054 17.5 19.3554 18.4683 20.2048 20.0235C20.6131 20.7737 20.3133 21.6953 19.6086 22.1795ZM14.0004 14C14.9287 14 15.8189 13.6313 16.4753 12.9749C17.1317 12.3185 17.5004 11.4283 17.5004 10.5C17.5004 9.57174 17.1317 8.6815 16.4753 8.02513C15.8189 7.36875 14.9287 7 14.0004 7C13.0722 7 12.1819 7.36875 11.5255 8.02513C10.8692 8.6815 10.5004 9.57174 10.5004 10.5C10.5004 11.4283 10.8692 12.3185 11.5255 12.9749C12.1819 13.6313 13.0722 14 14.0004 14Z" fill="#008DE7"/>
</svg>
