<svg width="28" height="28" viewBox="0 0 28 28" fill="none" xmlns="http://www.w3.org/2000/svg">
<path d="M5.70704 11.2165C5.70704 10.7475 6.08387 10.3672 6.54937 10.3672H11.048C11.5147 10.3672 11.8915 10.7475 11.8915 11.2165C11.892 11.3278 11.8705 11.438 11.8284 11.5409C11.7863 11.6439 11.7243 11.7375 11.6459 11.8165C11.5676 11.8954 11.4745 11.9582 11.3719 12.0012C11.2693 12.0442 11.1593 12.0666 11.048 12.067H6.54937C6.32494 12.0658 6.11016 11.9755 5.95223 11.8161C5.79429 11.6566 5.70611 11.441 5.70704 11.2165Z" fill="#008DE7"/>
<path fill-rule="evenodd" clip-rule="evenodd" d="M24.719 11.6714C24.6459 11.6675 24.5681 11.6659 24.4857 11.6667H21.2505C18.601 11.6667 16.333 13.692 16.333 16.3334C16.333 18.9747 18.601 21 21.2505 21H24.4857C24.5681 21.0008 24.6459 20.9993 24.719 20.9954C25.7958 20.93 26.7478 20.1122 26.8283 18.9689C26.833 18.8942 26.833 18.8137 26.833 18.739V13.9277C26.833 13.853 26.833 13.7725 26.8283 13.6979C26.7478 12.5545 25.7958 11.7379 24.719 11.6714ZM20.9658 17.5782C21.6472 17.5782 22.2002 17.0205 22.2002 16.3334C22.2002 15.645 21.6472 15.0885 20.9658 15.0885C20.2845 15.0885 19.7292 15.6462 19.7292 16.3334C19.7292 17.0217 20.2833 17.5782 20.9658 17.5782Z" fill="#008DE7"/>
<path opacity="0.5" d="M24.663 11.6692C24.663 10.2913 24.6117 8.81316 23.732 7.755C23.6457 7.65156 23.555 7.55192 23.4602 7.45633C22.5863 6.58366 21.4792 6.19633 20.1118 6.012C18.7818 5.8335 17.0843 5.8335 14.94 5.8335H12.476C10.3317 5.8335 8.63301 5.8335 7.30301 6.012C5.93567 6.19633 4.82851 6.58366 3.95467 7.45633C3.08201 8.33016 2.69467 9.43733 2.51034 10.8047C2.33301 12.1347 2.33301 13.8322 2.33301 15.9765V16.1072C2.33301 18.2515 2.33301 19.9502 2.51151 21.279C2.69584 22.6463 3.08317 23.7535 3.95584 24.6273C4.82967 25.5 5.93684 25.8873 7.30417 26.0717C8.63417 26.2502 10.3317 26.2502 12.476 26.2502H14.94C17.0843 26.2502 18.783 26.2502 20.1118 26.0717C21.4792 25.8873 22.5863 25.5 23.4602 24.6273C23.6974 24.3878 23.902 24.1311 24.0738 23.8573C24.5988 23.0173 24.6618 21.9883 24.6618 20.999L24.4868 21.0002H21.2505C18.601 21.0002 16.333 18.9748 16.333 16.3335C16.333 13.6922 18.601 11.6668 21.2505 11.6668H24.4857C24.5471 11.6668 24.607 11.6676 24.663 11.6692Z" fill="#008DE7"/>
<path d="M11.7845 3.00045L9.33336 4.65712L7.31152 6.01045C8.63919 5.83312 10.3355 5.83312 12.4764 5.83312H14.9404C17.0847 5.83312 18.7834 5.83312 20.1122 6.01162C20.3797 6.04662 20.6372 6.09095 20.8845 6.14462L18.6667 4.66645L16.2015 3.00045C15.5471 2.56551 14.7788 2.3335 13.993 2.3335C13.2072 2.3335 12.439 2.56551 11.7845 3.00045Z" fill="#008DE7"/>
</svg>
