<svg width="28" height="28" viewBox="0 0 28 28" fill="none" xmlns="http://www.w3.org/2000/svg">
<path fill-rule="evenodd" clip-rule="evenodd" d="M6.76183 21.2377L25.0972 2.90236C23.9445 1.74853 21.7605 2.47769 17.3902 3.93369L6.50399 7.56203C4.07499 8.37169 2.86049 8.77653 2.49183 9.66669C2.40471 9.87747 2.35299 10.0968 2.33666 10.3247C2.26783 11.286 3.17316 12.1914 4.98382 14.0009L5.31399 14.331C5.61032 14.6274 5.75966 14.7767 5.87166 14.9412C6.09333 15.2679 6.21816 15.6494 6.23333 16.0437C6.24266 16.2432 6.21116 16.452 6.14932 16.8662C5.92066 18.3875 5.80633 19.1482 5.94049 19.7339C6.07349 20.3114 6.36282 20.8282 6.76183 21.2377Z" fill="#888888"/>
<path opacity="0.5" d="M20.4139 21.5667L24.0655 10.6093C25.5239 6.24018 26.2507 4.05618 25.098 2.90234L6.7627 21.2377C7.1687 21.653 7.68903 21.9575 8.2747 22.101C8.85803 22.2433 9.61986 22.1395 11.1447 21.933L11.2275 21.9213C11.658 21.863 11.8727 21.8338 12.0792 21.8467C12.4525 21.87 12.8142 21.9913 13.1269 22.2002C13.2984 22.3157 13.4512 22.4685 13.758 22.7753L14.0509 23.0682C15.8125 24.8298 16.6945 25.7107 17.629 25.6652C17.8857 25.6535 18.14 25.5928 18.3757 25.489C19.232 25.1122 19.6264 23.9303 20.4139 21.5667Z" fill="#888888"/>
</svg>
