<svg width="20" height="20" viewBox="0 0 20 20" fill="none" xmlns="http://www.w3.org/2000/svg">
<path d="M5.20801 12.2915C5.20801 12.4573 5.27386 12.6162 5.39107 12.7334C5.50828 12.8507 5.66725 12.9165 5.83301 12.9165C5.99877 12.9165 6.15774 12.8507 6.27495 12.7334C6.39216 12.6162 6.45801 12.4573 6.45801 12.2915V7.2915C6.45801 7.12574 6.39216 6.96677 6.27495 6.84956C6.15774 6.73235 5.99877 6.6665 5.83301 6.6665C5.66725 6.6665 5.50828 6.73235 5.39107 6.84956C5.27386 6.96677 5.20801 7.12574 5.20801 7.2915V12.2915Z" fill="#008DE7"/>
<path fill-rule="evenodd" clip-rule="evenodd" d="M17.657 6.66998C17.6048 6.6672 17.5492 6.66609 17.4903 6.66664H15.1795C13.287 6.66664 11.667 8.11331 11.667 9.99998C11.667 11.8866 13.287 13.3333 15.1795 13.3333H17.4903C17.5492 13.3339 17.6048 13.3328 17.657 13.33C18.4262 13.2833 19.1062 12.6991 19.1637 11.8825C19.167 11.8291 19.167 11.7716 19.167 11.7183V8.28164C19.167 8.22831 19.167 8.17081 19.1637 8.11748C19.1062 7.30081 18.4262 6.71748 17.657 6.66998ZM14.9762 10.8891C15.4628 10.8891 15.8578 10.4908 15.8578 9.99998C15.8578 9.50831 15.4628 9.11081 14.9762 9.11081C14.4895 9.11081 14.0928 9.50914 14.0928 9.99998C14.0928 10.4916 14.4887 10.8891 14.9762 10.8891Z" fill="#008DE7"/>
<path opacity="0.5" d="M17.617 6.66833C17.617 5.68417 17.5803 4.62833 16.952 3.8725C16.8904 3.79862 16.8256 3.72744 16.7578 3.65917C16.1337 3.03583 15.3428 2.75917 14.3662 2.6275C13.4162 2.5 12.2037 2.5 10.672 2.5H8.91199C7.38033 2.5 6.16699 2.5 5.21699 2.6275C4.24033 2.75917 3.44949 3.03583 2.82533 3.65917C2.20199 4.28333 1.92533 5.07417 1.79366 6.05083C1.66699 7.00083 1.66699 8.21333 1.66699 9.745V9.83833C1.66699 11.37 1.66699 12.5833 1.79449 13.5325C1.92616 14.5092 2.20283 15.3 2.82616 15.9242C3.45033 16.5475 4.24116 16.8242 5.21783 16.9558C6.16783 17.0833 7.38033 17.0833 8.91199 17.0833H10.672C12.2037 17.0833 13.417 17.0833 14.3662 16.9558C15.3428 16.8242 16.1337 16.5475 16.7578 15.9242C16.9273 15.7531 17.0734 15.5697 17.1962 15.3742C17.5712 14.7742 17.6162 14.0392 17.6162 13.3325L17.4912 13.3333H15.1795C13.287 13.3333 11.667 11.8867 11.667 10C11.667 8.11333 13.287 6.66667 15.1795 6.66667H17.4903C17.5342 6.66667 17.577 6.66722 17.617 6.66833Z" fill="#008DE7"/>
</svg>
