<svg width="48" height="48" viewBox="0 0 48 48" fill="none" xmlns="http://www.w3.org/2000/svg">
<circle cx="24" cy="24" r="24" fill="#008DE7"/>
<path d="M31.0007 25.1644H25.1673V30.9977C25.1673 31.3071 25.0444 31.6039 24.8256 31.8227C24.6068 32.0415 24.3101 32.1644 24.0007 32.1644C23.6912 32.1644 23.3945 32.0415 23.1757 31.8227C22.9569 31.6039 22.834 31.3071 22.834 30.9977V25.1644H17.0007C16.6912 25.1644 16.3945 25.0415 16.1757 24.8227C15.9569 24.6039 15.834 24.3071 15.834 23.9977C15.834 23.6883 15.9569 23.3916 16.1757 23.1728C16.3945 22.954 16.6912 22.8311 17.0007 22.8311H22.834V16.9977C22.834 16.6883 22.9569 16.3916 23.1757 16.1728C23.3945 15.954 23.6912 15.8311 24.0007 15.8311C24.3101 15.8311 24.6068 15.954 24.8256 16.1728C25.0444 16.3916 25.1673 16.6883 25.1673 16.9977V22.8311H31.0007C31.3101 22.8311 31.6068 22.954 31.8256 23.1728C32.0444 23.3916 32.1673 23.6883 32.1673 23.9977C32.1673 24.3071 32.0444 24.6039 31.8256 24.8227C31.6068 25.0415 31.3101 25.1644 31.0007 25.1644Z" fill="white"/>
</svg>
