<svg width="28" height="28" viewBox="0 0 28 28" fill="none" xmlns="http://www.w3.org/2000/svg">
<path opacity="0.5" d="M4.86733 3.70034C3.5 5.06651 3.5 7.26684 3.5 11.6663V16.333C3.5 20.7325 3.5 22.9328 4.86733 24.299C6.23467 25.6652 8.43383 25.6663 12.8333 25.6663H15.1667C19.5662 25.6663 21.7665 25.6663 23.1327 24.299C24.4988 22.9317 24.5 20.7325 24.5 16.333V11.6663C24.5 7.26684 24.5 5.06651 23.1327 3.70034C21.7653 2.33417 19.5662 2.33301 15.1667 2.33301H12.8333C8.43383 2.33301 6.2335 2.33301 4.86733 3.70034Z" fill="#888888"/>
<path d="M7 14C7 12.3503 7 11.5255 7.51333 11.0133C8.02433 10.5 8.84917 10.5 10.5 10.5H17.5C19.1497 10.5 19.9745 10.5 20.4867 11.0133C21 11.5255 21 12.3503 21 14V18.6667C21 20.3163 21 21.1412 20.4867 21.6533C19.9745 22.1667 19.1497 22.1667 17.5 22.1667H10.5C8.85033 22.1667 8.0255 22.1667 7.51333 21.6533C7 21.1423 7 20.3175 7 18.6667V14ZM8.16667 6.125C7.9346 6.125 7.71204 6.21719 7.54795 6.38128C7.38385 6.54538 7.29167 6.76794 7.29167 7C7.29167 7.23206 7.38385 7.45462 7.54795 7.61872C7.71204 7.78281 7.9346 7.875 8.16667 7.875H14C14.2321 7.875 14.4546 7.78281 14.6187 7.61872C14.7828 7.45462 14.875 7.23206 14.875 7C14.875 6.76794 14.7828 6.54538 14.6187 6.38128C14.4546 6.21719 14.2321 6.125 14 6.125H8.16667Z" fill="#888888"/>
</svg>
