<svg width="28" height="28" viewBox="0 0 28 28" fill="none" xmlns="http://www.w3.org/2000/svg">
<path opacity="0.5" d="M2.33301 14.2377C2.33301 11.5672 2.33301 10.2325 2.93967 9.12651C3.54401 8.01934 4.65117 7.33334 6.86434 5.95901L9.19767 4.51117C11.5368 3.05867 12.707 2.33301 13.9997 2.33301C15.2923 2.33301 16.4613 3.05867 18.8017 4.51117L21.135 5.95901C23.3482 7.33334 24.4553 8.01934 25.0608 9.12651C25.6663 10.2337 25.6663 11.5672 25.6663 14.2365V16.0122C25.6663 20.5622 25.6663 22.8383 24.299 24.2523C22.9317 25.6663 20.7325 25.6663 16.333 25.6663H11.6663C7.26684 25.6663 5.06651 25.6663 3.70034 24.2523C2.33417 22.8383 2.33301 20.5633 2.33301 16.0122V14.2377Z" fill="#008DE7"/>
<path d="M11.0217 17.9644C10.8353 17.8261 10.6016 17.7675 10.372 17.8015C10.1423 17.8355 9.93564 17.9594 9.79733 18.1458C9.65902 18.3322 9.60043 18.566 9.63446 18.7956C9.66848 19.0252 9.79232 19.2319 9.97875 19.3702C11.1402 20.2377 12.5506 20.707 14.0002 20.7084C15.4499 20.707 16.8603 20.2377 18.0217 19.3702C18.2083 19.2319 18.3323 19.0252 18.3665 18.7954C18.4006 18.5657 18.3421 18.3318 18.2037 18.1452C18.0654 17.9587 17.8587 17.8347 17.6289 17.8005C17.3992 17.7664 17.1653 17.8249 16.9787 17.9632C16.1192 18.6074 15.0744 18.9565 14.0002 18.9584C12.9262 18.9568 11.8815 18.6081 11.0217 17.9644Z" fill="#008DE7"/>
</svg>
