<svg width="28" height="28" viewBox="0 0 28 28" fill="none" xmlns="http://www.w3.org/2000/svg">
<path d="M5.70704 11.2165C5.70704 10.7475 6.08387 10.3672 6.54937 10.3672H11.048C11.5147 10.3672 11.8915 10.7475 11.8915 11.2165C11.892 11.3278 11.8705 11.438 11.8284 11.5409C11.7863 11.6439 11.7243 11.7375 11.6459 11.8165C11.5676 11.8954 11.4745 11.9582 11.3719 12.0012C11.2693 12.0442 11.1593 12.0666 11.048 12.067H6.54937C6.32494 12.0658 6.11016 11.9755 5.95223 11.8161C5.79429 11.6566 5.70611 11.441 5.70704 11.2165Z" fill="#888888"/>
<path fill-rule="evenodd" clip-rule="evenodd" d="M24.719 11.6709C24.6459 11.667 24.5681 11.6654 24.4857 11.6662H21.2505C18.601 11.6662 16.333 13.6915 16.333 16.3329C16.333 18.9742 18.601 20.9995 21.2505 20.9995H24.4857C24.5681 21.0003 24.6459 20.9988 24.719 20.9949C25.7958 20.9295 26.7478 20.1117 26.8283 18.9684C26.833 18.8937 26.833 18.8132 26.833 18.7385V13.9272C26.833 13.8525 26.833 13.772 26.8283 13.6974C26.7478 12.554 25.7958 11.7374 24.719 11.6709ZM20.9658 17.5777C21.6472 17.5777 22.2002 17.02 22.2002 16.3329C22.2002 15.6445 21.6472 15.088 20.9658 15.088C20.2845 15.088 19.7292 15.6457 19.7292 16.3329C19.7292 17.0212 20.2833 17.5777 20.9658 17.5777Z" fill="#888888"/>
<path opacity="0.5" d="M24.663 11.6687C24.663 10.2908 24.6117 8.81267 23.732 7.75451C23.6457 7.65108 23.555 7.55143 23.4602 7.45584C22.5863 6.58317 21.4792 6.19584 20.1118 6.01151C18.7818 5.83301 17.0843 5.83301 14.94 5.83301H12.476C10.3317 5.83301 8.63301 5.83301 7.30301 6.01151C5.93567 6.19584 4.82851 6.58317 3.95467 7.45584C3.08201 8.32967 2.69467 9.43684 2.51034 10.8042C2.33301 12.1342 2.33301 13.8317 2.33301 15.976V16.1067C2.33301 18.251 2.33301 19.9497 2.51151 21.2785C2.69584 22.6458 3.08317 23.753 3.95584 24.6268C4.82967 25.4995 5.93684 25.8868 7.30417 26.0712C8.63417 26.2497 10.3317 26.2497 12.476 26.2497H14.94C17.0843 26.2497 18.783 26.2497 20.1118 26.0712C21.4792 25.8868 22.5863 25.4995 23.4602 24.6268C23.6974 24.3873 23.902 24.1306 24.0738 23.8568C24.5988 23.0168 24.6618 21.9878 24.6618 20.9985L24.4868 20.9997H21.2505C18.601 20.9997 16.333 18.9743 16.333 16.333C16.333 13.6917 18.601 11.6663 21.2505 11.6663H24.4857C24.5471 11.6663 24.607 11.6671 24.663 11.6687Z" fill="#888888"/>
<path d="M11.7845 3.00094L9.33336 4.65761L7.31152 6.01094C8.63919 5.83361 10.3355 5.83361 12.4764 5.83361H14.9404C17.0847 5.83361 18.7834 5.83361 20.1122 6.01211C20.3797 6.04711 20.6372 6.09144 20.8845 6.14511L18.6667 4.66694L16.2015 3.00094C15.5471 2.566 14.7788 2.33398 13.993 2.33398C13.2072 2.33398 12.439 2.566 11.7845 3.00094Z" fill="#888888"/>
</svg>
