<svg width="28" height="28" viewBox="0 0 28 28" fill="none" xmlns="http://www.w3.org/2000/svg">
<path fill-rule="evenodd" clip-rule="evenodd" d="M6.76183 21.2379L25.0972 2.9026C23.9445 1.74877 21.7605 2.47794 17.3902 3.93394L6.50399 7.56227C4.07499 8.37194 2.86049 8.77677 2.49183 9.66694C2.40471 9.87772 2.35299 10.0971 2.33666 10.3249C2.26783 11.2863 3.17316 12.1916 4.98382 14.0011L5.31399 14.3313C5.61032 14.6276 5.75966 14.7769 5.87166 14.9414C6.09333 15.2681 6.21816 15.6496 6.23333 16.0439C6.24266 16.2434 6.21116 16.4523 6.14932 16.8664C5.92066 18.3878 5.80633 19.1484 5.94049 19.7341C6.07349 20.3116 6.36282 20.8284 6.76183 21.2379Z" fill="#008DE7"/>
<path opacity="0.5" d="M20.4139 21.5669L24.0655 10.6096C25.5239 6.24042 26.2507 4.05642 25.098 2.90259L6.7627 21.2379C7.1687 21.6533 7.68903 21.9578 8.2747 22.1013C8.85803 22.2436 9.61986 22.1398 11.1447 21.9333L11.2275 21.9216C11.658 21.8633 11.8727 21.8341 12.0792 21.8469C12.4525 21.8703 12.8142 21.9916 13.1269 22.2004C13.2984 22.3159 13.4512 22.4688 13.758 22.7756L14.0509 23.0684C15.8125 24.8301 16.6945 25.7109 17.629 25.6654C17.8857 25.6538 18.14 25.5931 18.3757 25.4893C19.232 25.1124 19.6264 23.9306 20.4139 21.5669Z" fill="#008DE7"/>
</svg>
