<svg width="32" height="32" viewBox="0 0 32 32" fill="none" xmlns="http://www.w3.org/2000/svg">
<path opacity="0.5" d="M2.66699 15.9998C2.66699 23.3638 8.63633 29.3332 16.0003 29.3332C23.3643 29.3332 29.3337 23.3638 29.3337 15.9998C29.3337 8.63584 23.3643 2.6665 16.0003 2.6665C8.63633 2.6665 2.66699 8.63584 2.66699 15.9998Z" fill="#888888"/>
<path d="M20.7071 14.7067C20.8054 14.6152 20.8842 14.5048 20.9388 14.3821C20.9935 14.2594 21.0229 14.127 21.0252 13.9927C21.0276 13.8585 21.0029 13.7251 20.9526 13.6006C20.9023 13.4761 20.8275 13.363 20.7325 13.268C20.6375 13.173 20.5244 13.0982 20.3999 13.0479C20.2754 12.9976 20.142 12.9729 20.0078 12.9753C19.8735 12.9776 19.7411 13.007 19.6184 13.0617C19.4957 13.1163 19.3853 13.1951 19.2938 13.2934L16.0004 16.5867L12.7071 13.2934C12.5175 13.1167 12.2668 13.0206 12.0078 13.0251C11.7487 13.0297 11.5015 13.1347 11.3183 13.3179C11.1351 13.5011 11.0301 13.7483 11.0255 14.0073C11.021 14.2664 11.1171 14.5171 11.2938 14.7067L15.2938 18.7067C15.4813 18.894 15.7354 18.9992 16.0004 18.9992C16.2654 18.9992 16.5196 18.894 16.7071 18.7067L20.7071 14.7067Z" fill="#888888"/>
</svg>
