<svg width="28" height="28" viewBox="0 0 28 28" fill="none" xmlns="http://www.w3.org/2000/svg">
<path opacity="0.5" d="M21.8751 10.4999V11.3213C21.8751 12.3071 22.1551 13.2708 22.6824 14.0909L23.9751 16.1011C25.1546 17.9374 24.2539 20.4329 22.2017 21.0128C16.8394 22.5313 11.1607 22.5313 5.79841 21.0128C3.74624 20.4329 2.84557 17.9374 4.02507 16.1011L5.31774 14.0909C5.84649 13.264 6.12707 12.3028 6.12624 11.3213V10.4999C6.12624 5.98959 9.65191 2.33325 14.0001 2.33325C18.3482 2.33325 21.8751 5.98959 21.8751 10.4999Z" fill="#888888"/>
<path d="M14.875 7C14.875 6.76794 14.7828 6.54538 14.6187 6.38128C14.4547 6.21719 14.2321 6.125 14 6.125C13.768 6.125 13.5454 6.21719 13.3813 6.38128C13.2172 6.54538 13.125 6.76794 13.125 7V11.6667C13.125 11.8987 13.2172 12.1213 13.3813 12.2854C13.5454 12.4495 13.768 12.5417 14 12.5417C14.2321 12.5417 14.4547 12.4495 14.6187 12.2854C14.7828 12.1213 14.875 11.8987 14.875 11.6667V7ZM8.4502 21.6358C8.8314 22.8073 9.57356 23.8281 10.5704 24.552C11.5672 25.2759 12.7675 25.6657 13.9994 25.6657C15.2314 25.6657 16.4317 25.2759 17.4285 24.552C18.4253 23.8281 19.1675 22.8073 19.5487 21.6358C15.8795 22.3242 12.1205 22.3242 8.4502 21.6358Z" fill="#888888"/>
</svg>
