<svg width="24" height="24" viewBox="0 0 24 24" fill="none" xmlns="http://www.w3.org/2000/svg">
<path d="M11.4002 12L15.3002 15.9C15.4835 16.0833 15.5752 16.3166 15.5752 16.6C15.5752 16.8833 15.4835 17.1166 15.3002 17.3C15.1169 17.4833 14.8835 17.575 14.6002 17.575C14.3169 17.575 14.0835 17.4833 13.9002 17.3L9.3002 12.7C9.2002 12.6 9.1292 12.4916 9.0872 12.375C9.0452 12.2583 9.02453 12.1333 9.0252 12C9.02586 11.8666 9.04653 11.7416 9.0872 11.625C9.12786 11.5083 9.19886 11.4 9.3002 11.3L13.9002 6.69995C14.0835 6.51662 14.3169 6.42495 14.6002 6.42495C14.8835 6.42495 15.1169 6.51662 15.3002 6.69995C15.4835 6.88329 15.5752 7.11662 15.5752 7.39995C15.5752 7.68328 15.4835 7.91662 15.3002 8.09995L11.4002 12Z" fill="black"/>
</svg>
