<svg width="16" height="16" viewBox="0 0 16 16" fill="none" xmlns="http://www.w3.org/2000/svg">
<path d="M4.63967 1.3335C4.91834 1.3335 5.14367 1.54016 5.14367 1.79483V2.72683C5.59034 2.71883 6.09167 2.71883 6.65567 2.71883H9.34367C9.90767 2.71883 10.4083 2.71883 10.8557 2.72683V1.79483C10.8557 1.54016 11.081 1.3335 11.3597 1.3335C11.6383 1.3335 11.8637 1.54016 11.8637 1.79483V2.76683C12.8303 2.8375 13.4657 3.01216 13.9323 3.43883C14.399 3.86616 14.589 4.4475 14.6663 5.3335V6.00016H1.33301V5.3335C1.41034 4.4475 1.60034 3.86683 2.06701 3.43883C2.53367 3.01216 3.16834 2.8375 4.13567 2.76683V1.79483C4.13567 1.54016 4.36167 1.3335 4.63967 1.3335Z" fill="#008DE7"/>
<path opacity="0.5" d="M14.6662 9.33333V8C14.6662 7.44067 14.6575 6.44333 14.6489 6H1.33686C1.32819 6.44333 1.33686 7.44067 1.33686 8V9.33333C1.33686 11.8473 1.33686 13.1047 2.11686 13.8853C2.89886 14.6667 4.15553 14.6667 6.66886 14.6667H9.33553C11.8489 14.6667 13.1049 14.6667 13.8862 13.8853C14.6675 13.104 14.6662 11.8473 14.6662 9.33333Z" fill="#008DE7"/>
<path fill-rule="evenodd" clip-rule="evenodd" d="M12.5 11.0002C12.303 11.0002 12.108 11.039 11.926 11.1144C11.744 11.1898 11.5786 11.3003 11.4393 11.4395C11.3001 11.5788 11.1896 11.7442 11.1142 11.9262C11.0388 12.1082 11 12.3032 11 12.5002C11 12.6972 11.0388 12.8922 11.1142 13.0742C11.1896 13.2562 11.3001 13.4216 11.4393 13.5609C11.5786 13.7002 11.744 13.8106 11.926 13.886C12.108 13.9614 12.303 14.0002 12.5 14.0002C12.8978 14.0002 13.2794 13.8422 13.5607 13.5609C13.842 13.2796 14 12.898 14 12.5002C14 12.1024 13.842 11.7209 13.5607 11.4395C13.2794 11.1582 12.8978 11.0002 12.5 11.0002ZM10 12.5002C10.0001 12.1104 10.0914 11.7261 10.2665 11.3778C10.4416 11.0296 10.6957 10.7271 11.0086 10.4946C11.3214 10.262 11.6842 10.1059 12.0682 10.0386C12.4521 9.97123 12.8465 9.9946 13.2197 10.1068C13.593 10.219 13.9349 10.417 14.2181 10.6849C14.5012 10.9527 14.7178 11.2831 14.8506 11.6496C14.9833 12.0161 15.0285 12.4085 14.9826 12.7956C14.9366 13.1827 14.8008 13.5536 14.586 13.8789L15.52 14.8135C15.5691 14.8593 15.6085 14.9145 15.6359 14.9758C15.6632 15.0372 15.6779 15.1034 15.6791 15.1705C15.6802 15.2377 15.6679 15.3043 15.6427 15.3666C15.6176 15.4289 15.5802 15.4854 15.5327 15.5329C15.4852 15.5804 15.4287 15.6178 15.3664 15.643C15.3041 15.6681 15.2375 15.6805 15.1703 15.6793C15.1032 15.6781 15.037 15.6634 14.9756 15.6361C14.9143 15.6087 14.8591 15.5693 14.8133 15.5202L13.8787 14.5862C13.5018 14.8353 13.0646 14.9777 12.6133 14.9981C12.1621 15.0186 11.7137 14.9164 11.3159 14.7025C10.918 14.4885 10.5856 14.1708 10.3539 13.783C10.1222 13.3952 9.99991 12.9519 10 12.5002Z" fill="#008DE7"/>
</svg>
